<svg width="24" height="24" viewBox="0 0 24 24" fill="none" xmlns="http://www.w3.org/2000/svg">
<path fill-rule="evenodd" clip-rule="evenodd" d="M7.46471 1.0662C6.29389 1.1196 5.49426 1.30556 4.79458 1.57751C4.07123 1.85858 3.45779 2.2347 2.84623 2.84623C2.2347 3.45779 1.85858 4.07123 1.57751 4.79458C1.30556 5.49426 1.1196 6.29389 1.0662 7.46471C1.01266 8.63798 1 9.01258 1 12C1 14.9874 1.01266 15.362 1.0662 16.5353C1.1196 17.7061 1.30556 18.5057 1.57751 19.2054C1.85858 19.9288 2.2347 20.5422 2.84623 21.1538C3.45779 21.7653 4.07123 22.1414 4.79458 22.4225C5.49426 22.6944 6.29389 22.8804 7.46471 22.9338C8.63798 22.9873 9.01258 23 12 23C14.9874 23 15.362 22.9873 16.5353 22.9338C17.7061 22.8804 18.5057 22.6944 19.2054 22.4225C19.9288 22.1414 20.5422 21.7653 21.1538 21.1538C21.7653 20.5422 22.1414 19.9288 22.4225 19.2054C22.6944 18.5057 22.8804 17.7061 22.9338 16.5353C22.9873 15.362 23 14.9874 23 12C23 9.01258 22.9873 8.63798 22.9338 7.46471C22.8804 6.29389 22.6944 5.49426 22.4225 4.79458C22.1414 4.07123 21.7653 3.45779 21.1538 2.84623C20.5422 2.2347 19.9288 1.85858 19.2054 1.57751C18.5057 1.30556 17.7061 1.1196 16.5353 1.0662C15.362 1.01266 14.9874 1 12 1C9.01258 1 8.63798 1.01266 7.46471 1.0662ZM8.33364 12.0003C8.33364 9.97526 9.97526 8.33364 12.0003 8.33364C14.0254 8.33364 15.667 9.97526 15.667 12.0003C15.667 14.0254 14.0254 15.667 12.0003 15.667C9.97526 15.667 8.33364 14.0254 8.33364 12.0003ZM6.35148 12.0001C6.35148 15.1198 8.88044 17.6488 12.0001 17.6488C15.1198 17.6488 17.6488 15.1198 17.6488 12.0001C17.6488 8.88044 15.1198 6.35148 12.0001 6.35148C8.88044 6.35148 6.35148 8.88044 6.35148 12.0001ZM17.8719 7.44834C17.1429 7.44834 16.5519 6.85739 16.5519 6.12836C16.5519 5.39934 17.1429 4.80834 17.8719 4.80834C18.6009 4.80834 19.1919 5.39934 19.1919 6.12836C19.1919 6.85739 18.6009 7.44834 17.8719 7.44834Z" fill="white"/>
</svg>
