<svg width="24" height="18" viewBox="0 0 24 18" fill="none" xmlns="http://www.w3.org/2000/svg">
<path d="M23.5055 3.22754C23.229 2.19937 22.4183 1.38887 21.3903 1.11201C19.5122 0.598145 11.9997 0.598145 11.9997 0.598145C11.9997 0.598145 4.48756 0.598145 2.60948 1.09253C1.60122 1.36909 0.770802 2.19951 0.494239 3.22754C0 5.10548 0 9.00006 0 9.00006C0 9.00006 0 12.9143 0.494239 14.7726C0.771095 15.8006 1.58145 16.6111 2.60962 16.888C4.50733 17.402 12 17.402 12 17.402C12 17.402 19.5122 17.402 21.3903 16.9076C22.4185 16.6309 23.229 15.8204 23.5058 14.7924C23.9999 12.9143 23.9999 9.01984 23.9999 9.01984C23.9999 9.01984 24.0197 5.10548 23.5055 3.22754ZM9.60793 12.598V5.40211L15.8549 9.00006L9.60793 12.598Z" fill="white"/>
</svg>
